<?xml version="1.0"?>
<svg xmlns="http://www.w3.org/2000/svg" xmlns:xlink="http://www.w3.org/1999/xlink" xmlns:svgjs="http://svgjs.com/svgjs" version="1.1" width="512" height="512" x="0" y="0" viewBox="0 0 137 137.83527" style="enable-background:new 0 0 512 512" xml:space="preserve" class=""><g>
<g xmlns="http://www.w3.org/2000/svg" id="surface1">
<path d="M 2.507812 77.996094 C 4.238281 78.210938 5.980469 78.3125 7.722656 78.308594 C 24.777344 78.308594 41.945312 68.746094 48.628906 64.613281 L 40.308594 137.835938 L 66.453125 137.835938 L 58.210938 65.042969 C 65.230469 69.796875 82.636719 80.261719 99.960938 80.261719 C 101.082031 80.261719 102.203125 80.261719 103.324219 80.128906 L 104.429688 80.039062 L 105.414062 77.8125 L 104.730469 76.925781 C 91.722656 60.1875 65.269531 54.285156 60.105469 53.265625 C 59.789062 52.574219 59.367188 51.9375 58.859375 51.371094 C 60.003906 46.230469 65.230469 19.628906 55.121094 0.984375 L 54.589844 0 L 52.101562 0 L 51.5625 0.984375 C 41.484375 19.65625 46.699219 46.230469 47.828125 51.371094 C 47.390625 51.859375 47.015625 52.394531 46.722656 52.976562 C 41.507812 53.773438 14.828125 58.566406 1.125 74.738281 L 0.417969 75.582031 L 1.285156 77.863281 Z M 60.699219 57.207031 C 67.257812 58.667969 87.691406 64.042969 99.476562 76.527344 C 82.324219 76.289062 64.53125 64.890625 59.023438 61.046875 C 59.933594 59.953125 60.515625 58.625 60.6875 57.207031 Z M 53.40625 59.925781 C 51.398438 59.929688 49.769531 58.308594 49.757812 56.300781 C 49.753906 54.292969 51.375 52.664062 53.382812 52.652344 C 55.390625 52.648438 57.019531 54.269531 57.027344 56.277344 C 57.027344 56.28125 57.027344 56.285156 57.027344 56.292969 C 57.027344 58.292969 55.402344 59.925781 53.394531 59.925781 Z M 62.308594 134.0625 L 44.496094 134.0625 L 44.964844 129.839844 L 61.820312 129.839844 Z M 45.394531 126.160156 L 52.5 63.621094 C 52.792969 63.667969 53.09375 63.699219 53.394531 63.707031 C 53.691406 63.703125 53.992188 63.679688 54.289062 63.636719 L 61.398438 126.160156 Z M 53.382812 6.023438 C 60.066406 21.769531 56.792969 42.632812 55.449219 49.230469 C 54.085938 48.820312 52.628906 48.820312 51.265625 49.230469 C 49.996094 42.632812 46.734375 21.785156 53.394531 5.960938 Z M 46.0625 56.898438 C 46.179688 58.320312 46.707031 59.671875 47.582031 60.796875 C 42.039062 64.320312 24.492188 74.574219 7.660156 74.574219 L 6.503906 74.574219 C 18.800781 62.601562 39.441406 58.082031 46.0625 56.898438 Z M 46.0625 56.898438 " style="" fill="#fff9f9" data-original="#000000"/>
</g>
</g></svg>
